<svg xmlns="http://www.w3.org/2000/svg" width="148" height="147" viewBox="0 0 148 147"><defs><clipPath id="sjjla"><path fill="#fff" d="M74.5 0C115.093 0 148 32.907 148 73.5S115.093 147 74.5 147 1 114.093 1 73.5 33.907 0 74.5 0z"/></clipPath></defs><g><g><path fill="#fff" d="M74.5 0C115.093 0 148 32.907 148 73.5S115.093 147 74.5 147 1 114.093 1 73.5 33.907 0 74.5 0z"/><path fill="none" stroke="#e12457" stroke-miterlimit="50" stroke-width="10" d="M74.5 0C115.093 0 148 32.907 148 73.5S115.093 147 74.5 147 1 114.093 1 73.5 33.907 0 74.5 0z" clip-path="url(&quot;#sjjla&quot;)"/></g></g></svg>