<svg xmlns="http://www.w3.org/2000/svg" width="2717" height="2375" viewBox="0 0 2717 2375"><defs><clipPath id="e13wa"><path fill="#fff" d="M1441.942.028c748.831 2.393 1318.521 535.982 1272.437 1191.804-46.083 655.822-690.49 1185.532-1439.321 1183.14C526.227 2372.58-43.463 1838.99 2.621 1183.167 48.704 527.346 693.11-2.365 1441.94.028z"/></clipPath></defs><g><g><path fill="#fff" d="M1441.942.028c748.831 2.393 1318.521 535.982 1272.437 1191.804-46.083 655.822-690.49 1185.532-1439.321 1183.14C526.227 2372.58-43.463 1838.99 2.621 1183.167 48.704 527.346 693.11-2.365 1441.94.028z"/><path fill="none" stroke="#e12457" stroke-miterlimit="50" stroke-width="10" d="M1441.942.028c748.831 2.393 1318.521 535.982 1272.437 1191.804-46.083 655.822-690.49 1185.532-1439.321 1183.14C526.227 2372.58-43.463 1838.99 2.621 1183.167 48.704 527.346 693.11-2.365 1441.94.028z" clip-path="url(&quot;#e13wa&quot;)"/></g></g></svg>